<svg width="30" height="30" viewBox="0 0 30 30" fill="none" xmlns="http://www.w3.org/2000/svg">
<path d="M14.2806 5.8797C14.3226 5.88184 14.3646 5.88399 14.4079 5.8862C16.1683 5.98653 17.743 6.66226 19.0806 7.7997C19.1261 7.83713 19.1715 7.87457 19.2184 7.91313C19.5799 8.21976 19.8717 8.565 20.1606 8.9397C20.2007 8.9902 20.2409 9.04071 20.2822 9.09274C21.4107 10.5654 22.0334 12.5889 21.8085 14.4412C21.6633 15.5262 21.4529 16.6639 20.8206 17.5797C20.7694 17.669 20.7192 17.759 20.6706 17.8497C20.5503 18.0685 20.4297 18.2792 20.2806 18.4797C20.241 18.4797 20.2014 18.4797 20.1606 18.4797C20.1402 18.528 20.1402 18.528 20.1193 18.5772C20.0146 18.7668 19.8822 18.9158 19.7406 19.0797C19.7674 19.1065 19.7943 19.1334 19.8219 19.161C19.8582 19.1973 19.8945 19.2336 19.9318 19.2709C19.9703 19.3093 20.0087 19.3477 20.0483 19.3872C20.1388 19.4779 20.2286 19.5693 20.3181 19.6609C20.4576 19.8013 20.4576 19.8013 20.6106 19.9197C20.7737 20.0502 20.9145 20.1903 21.0606 20.3397C21.4321 20.7189 21.4321 20.7189 21.8256 21.0747C22.0979 21.3073 22.3467 21.5627 22.5971 21.8184C22.7713 22.0018 22.7713 22.0018 22.9806 22.1397C22.9806 22.1793 22.9806 22.2189 22.9806 22.2597C23.0132 22.2728 23.0459 22.286 23.0795 22.2995C23.2671 22.4061 23.408 22.5497 23.5581 22.7022C23.5875 22.7311 23.6169 22.76 23.6472 22.7899C23.7976 22.9411 23.9283 23.0768 24.0006 23.2797C23.9838 23.5427 23.9188 23.7288 23.7606 23.9397C23.5514 24.1024 23.2941 24.0867 23.0406 24.0597C22.8906 23.9997 22.8906 23.9997 22.8006 23.9397C22.8006 23.9001 22.8006 23.8605 22.8006 23.8197C22.7622 23.8036 22.7239 23.7875 22.6843 23.7709C22.5606 23.6997 22.5606 23.6997 22.5006 23.5197C22.461 23.5197 22.4214 23.5197 22.3806 23.5197C22.3806 23.4801 22.3806 23.4405 22.3806 23.3997C22.3469 23.3857 22.3132 23.3717 22.2784 23.3573C22.1066 23.2605 21.9922 23.1405 21.8556 22.9984C21.6374 22.7755 21.4149 22.5662 21.1778 22.3638C21.0037 22.2092 20.8424 22.0429 20.6804 21.8758C20.5851 21.7745 20.5851 21.7745 20.4606 21.7197C20.4606 21.6801 20.4606 21.6405 20.4606 21.5997C20.4272 21.5861 20.3938 21.5725 20.3593 21.5584C20.1809 21.4572 20.0574 21.3317 19.9206 21.1797C19.9206 21.1401 19.9206 21.1005 19.9206 21.0597C19.8859 21.044 19.8511 21.0283 19.8154 21.0121C19.4644 20.8235 19.1766 20.5038 18.9006 20.2197C18.861 20.1801 18.8214 20.1405 18.7806 20.0997C18.5912 20.1216 18.471 20.199 18.3193 20.3097C17.0777 21.1551 15.7182 21.5895 14.2206 21.6597C14.1516 21.6634 14.1516 21.6634 14.0811 21.6672C13.3038 21.6883 12.5086 21.5609 11.7606 21.3597C11.7099 21.3469 11.6591 21.334 11.6068 21.3208C11.1762 21.2035 10.7809 21.0148 10.3806 20.8197C10.3203 20.7905 10.2601 20.7614 10.198 20.7313C10.0212 20.64 9.85454 20.5406 9.68684 20.4334C9.63232 20.3989 9.57779 20.3643 9.52161 20.3287C9.36064 20.2197 9.21143 20.1022 9.06059 19.9797C8.93258 19.8863 8.80404 19.7938 8.67505 19.7017C8.62829 19.6611 8.62829 19.6611 8.58059 19.6197C8.58059 19.5801 8.58059 19.5405 8.58059 19.4997C8.54099 19.4997 8.50139 19.4997 8.46059 19.4997C8.46059 19.4601 8.46059 19.4205 8.46059 19.3797C8.42687 19.3667 8.39315 19.3537 8.35841 19.3403C8.17437 19.2327 8.069 19.0954 7.93559 18.9297C7.88764 18.8709 7.83969 18.8121 7.79028 18.7516C7.68059 18.5997 7.68059 18.5997 7.68059 18.4797C7.62119 18.4599 7.56179 18.4401 7.50059 18.4197C7.19218 17.9919 6.94224 17.5173 6.72059 17.0397C6.69167 16.9818 6.66274 16.924 6.63294 16.8644C5.74803 14.9868 5.84394 12.8205 6.52867 10.9052C6.83699 10.0943 7.2842 9.34744 7.86059 8.6997C7.89764 8.65638 7.93469 8.61307 7.97286 8.56845C8.34222 8.14106 8.71689 7.764 9.18059 7.4397C9.21153 7.41748 9.24247 7.39526 9.27434 7.37237C10.726 6.33394 12.49 5.77974 14.2806 5.8797ZM10.6206 8.0997C10.5613 8.13187 10.5019 8.16405 10.4408 8.1972C10.32 8.26354 10.1999 8.33075 10.0806 8.3997C10.0806 8.4393 10.0806 8.4789 10.0806 8.5197C10.0467 8.53462 10.0128 8.54955 9.97794 8.56493C9.52143 8.81344 8.76147 9.47827 8.59395 9.97915C8.58954 10.0123 8.58514 10.0455 8.58059 10.0797C8.54099 10.0797 8.50139 10.0797 8.46059 10.0797C7.47162 11.8558 7.10427 13.6165 7.60911 15.6114C7.78969 16.2005 8.05788 16.8256 8.40059 17.3397C8.44019 17.3397 8.47979 17.3397 8.52059 17.3397C8.53637 17.4133 8.53637 17.4133 8.55247 17.4883C8.67529 17.7829 8.87061 17.9748 9.09059 18.2022C9.13197 18.2464 9.17335 18.2905 9.21598 18.336C9.37339 18.503 9.37339 18.503 9.54059 18.6597C9.58019 18.6597 9.61979 18.6597 9.66059 18.6597C9.66059 18.6993 9.66059 18.7389 9.66059 18.7797C9.75959 18.8193 9.85859 18.8589 9.96059 18.8997C9.96059 18.9393 9.96059 18.9789 9.96059 19.0197C10.1002 19.1128 10.2392 19.1985 10.3843 19.2822C10.4238 19.3054 10.4632 19.3286 10.5038 19.3525C10.5835 19.3993 10.6635 19.4458 10.7437 19.4919C10.818 19.535 10.8919 19.5789 10.9651 19.6239C12.2072 20.3749 13.9699 20.4636 15.3606 20.1597C16.2462 19.9379 17.0853 19.5658 17.8206 19.0197C17.8674 18.985 17.9142 18.9504 17.9624 18.9147C18.3571 18.615 18.7262 18.2813 19.0206 17.8797C19.0206 17.8401 19.0206 17.8005 19.0206 17.7597C19.0602 17.7597 19.0998 17.7597 19.1406 17.7597C19.2312 17.6415 19.3122 17.5251 19.3918 17.3997C19.4158 17.3621 19.4397 17.3245 19.4643 17.2858C20.3485 15.8555 20.7038 14.1145 20.3347 12.4654C20.3169 12.3909 20.299 12.3164 20.2806 12.2397C20.2646 12.1695 20.2486 12.0994 20.2321 12.0271C20.0867 11.4555 19.843 10.9537 19.5606 10.4397C19.53 10.3824 19.4993 10.3251 19.4678 10.266C18.9734 9.41619 18.2212 8.74338 17.4006 8.2197C17.3497 8.18551 17.2988 8.15133 17.2464 8.1161C15.2322 6.81982 12.6544 6.97776 10.6206 8.0997Z" fill="#978F82"/>
</svg>
